REM DIRINDEX 1\2,1\3,1\4
REM DIRNAME cjc151,folder01,folder02,folder03
TITLE ""
FILE "142 142_TOEFL_3900.mp3" MP3
  TRACK 01 AUDIO
    TITLE "2:cjc151_6177"
    INDEX 01 00:00:00
  TRACK 02 AUDIO
    TITLE "0:"
    INDEX 01 00:01:28
  TRACK 03 AUDIO
    TITLE "3:cjc151_6178"
    INDEX 01 00:03:06
  TRACK 04 AUDIO
    TITLE "0:"
    INDEX 01 00:07:15
  TRACK 05 AUDIO
    TITLE "2:cjc151_6179"
    INDEX 01 00:08:68
  TRACK 06 AUDIO
    TITLE "0:"
    INDEX 01 00:12:09
  TRACK 07 AUDIO
    TITLE "3:cjc151_6180"
    INDEX 01 00:13:57
  TRACK 08 AUDIO
    TITLE "0:"
    INDEX 01 00:18:13
  TRACK 09 AUDIO
    TITLE "2:cjc151_6181"
    INDEX 01 00:19:67
  TRACK 10 AUDIO
    TITLE "0:"
    INDEX 01 00:20:63
  TRACK 11 AUDIO
    TITLE "3:cjc151_6182"
    INDEX 01 00:22:42
  TRACK 12 AUDIO
    TITLE "0:"
    INDEX 01 00:26:34
  TRACK 13 AUDIO
    TITLE "2:cjc151_6183"
    INDEX 01 00:28:12
  TRACK 14 AUDIO
    TITLE "0:"
    INDEX 01 00:29:17
  TRACK 15 AUDIO
    TITLE "3:cjc151_6184"
    INDEX 01 00:30:69
  TRACK 16 AUDIO
    TITLE "0:"
    INDEX 01 00:35:10
  TRACK 17 AUDIO
    TITLE "2:cjc151_6185"
    INDEX 01 00:36:62
  TRACK 18 AUDIO
    TITLE "0:"
    INDEX 01 00:37:69
  TRACK 19 AUDIO
    TITLE "3:cjc151_6186"
    INDEX 01 00:39:47
  TRACK 20 AUDIO
    TITLE "0:"
    INDEX 01 00:43:60
  TRACK 21 AUDIO
    TITLE "2:cjc151_6187"
    INDEX 01 00:45:37
  TRACK 22 AUDIO
    TITLE "0:"
    INDEX 01 00:46:47
  TRACK 23 AUDIO
    TITLE "3:cjc151_6188"
    INDEX 01 00:48:24
  TRACK 24 AUDIO
    TITLE "0:"
    INDEX 01 00:52:18
  TRACK 25 AUDIO
    TITLE "2:cjc151_6189"
    INDEX 01 00:53:72
  TRACK 26 AUDIO
    TITLE "0:"
    INDEX 01 00:55:38
  TRACK 27 AUDIO
    TITLE "3:cjc151_6190"
    INDEX 01 00:57:13
  TRACK 28 AUDIO
    TITLE "0:"
    INDEX 01 01:01:23
  TRACK 29 AUDIO
    TITLE "2:cjc151_6191"
    INDEX 01 01:03:02
  TRACK 30 AUDIO
    TITLE "0:"
    INDEX 01 01:04:31
  TRACK 31 AUDIO
    TITLE "3:cjc151_6192"
    INDEX 01 01:06:10
  TRACK 32 AUDIO
    TITLE "0:"
    INDEX 01 01:10:47
  TRACK 33 AUDIO
    TITLE "2:cjc151_6193"
    INDEX 01 01:12:24
  TRACK 34 AUDIO
    TITLE "0:"
    INDEX 01 01:15:17
  TRACK 35 AUDIO
    TITLE "3:cjc151_6194"
    INDEX 01 01:16:69
  TRACK 36 AUDIO
    TITLE "0:"
    INDEX 01 01:21:39
  TRACK 37 AUDIO
    TITLE "2:cjc151_6195"
    INDEX 01 01:23:20
  TRACK 38 AUDIO
    TITLE "0:"
    INDEX 01 01:24:59
  TRACK 39 AUDIO
    TITLE "3:cjc151_6196"
    INDEX 01 01:26:36
  TRACK 40 AUDIO
    TITLE "0:"
    INDEX 01 01:35:00
  TRACK 41 AUDIO
    TITLE "2:cjc151_6197"
    INDEX 01 01:36:54
  TRACK 42 AUDIO
    TITLE "0:"
    INDEX 01 01:37:56
  TRACK 43 AUDIO
    TITLE "3:cjc151_6198"
    INDEX 01 01:39:35
  TRACK 44 AUDIO
    TITLE "0:"
    INDEX 01 01:42:65
  TRACK 45 AUDIO
    TITLE "2:cjc151_6199"
    INDEX 01 01:44:42
  TRACK 46 AUDIO
    TITLE "0:"
    INDEX 01 01:45:57
  TRACK 47 AUDIO
    TITLE "3:cjc151_6200"
    INDEX 01 01:47:39
  TRACK 48 AUDIO
    TITLE "0:"
    INDEX 01 01:51:66
  TRACK 49 AUDIO
    TITLE "2:cjc151_6201"
    INDEX 01 01:53:45
  TRACK 50 AUDIO
    TITLE "0:"
    INDEX 01 01:54:70
  TRACK 51 AUDIO
    TITLE "3:cjc151_6202"
    INDEX 01 01:56:47
  TRACK 52 AUDIO
    TITLE "0:"
    INDEX 01 02:00:71
  TRACK 53 AUDIO
    TITLE "2:cjc151_6203"
    INDEX 01 02:02:50
  TRACK 54 AUDIO
    TITLE "0:"
    INDEX 01 02:04:10
  TRACK 55 AUDIO
    TITLE "3:cjc151_6204"
    INDEX 01 02:05:60
  TRACK 56 AUDIO
    TITLE "0:"
    INDEX 01 02:10:57
  TRACK 57 AUDIO
    TITLE "2:cjc151_6205"
    INDEX 01 02:12:36
  TRACK 58 AUDIO
    TITLE "0:"
    INDEX 01 02:13:36
  TRACK 59 AUDIO
    TITLE "3:cjc151_6206"
    INDEX 01 02:15:15
  TRACK 60 AUDIO
    TITLE "0:"
    INDEX 01 02:19:21
  TRACK 61 AUDIO
    TITLE "2:cjc151_6207"
    INDEX 01 02:21:00
  TRACK 62 AUDIO
    TITLE "0:"
    INDEX 01 02:22:33
  TRACK 63 AUDIO
    TITLE "3:cjc151_6208"
    INDEX 01 02:24:12
  TRACK 64 AUDIO
    TITLE "0:"
    INDEX 01 02:27:73
  TRACK 65 AUDIO
    TITLE "2:cjc151_6209"
    INDEX 01 02:29:49
  TRACK 66 AUDIO
    TITLE "0:"
    INDEX 01 02:30:56
  TRACK 67 AUDIO
    TITLE "3:cjc151_6210"
    INDEX 01 02:32:35
  TRACK 68 AUDIO
    TITLE "0:"
    INDEX 01 02:36:06
  TRACK 69 AUDIO
    TITLE "2:cjc151_6211"
    INDEX 01 02:37:68
  TRACK 70 AUDIO
    TITLE "0:"
    INDEX 01 02:39:16
  TRACK 71 AUDIO
    TITLE "3:cjc151_6212"
    INDEX 01 02:40:70
  TRACK 72 AUDIO
    TITLE "0:"
    INDEX 01 02:46:14
  TRACK 73 AUDIO
    TITLE "2:cjc151_6213"
    INDEX 01 02:47:66
  TRACK 74 AUDIO
    TITLE "0:"
    INDEX 01 02:48:70
  TRACK 75 AUDIO
    TITLE "3:cjc151_6214"
    INDEX 01 02:50:47
  TRACK 76 AUDIO
    TITLE "0:"
    INDEX 01 02:54:70
  TRACK 77 AUDIO
    TITLE "2:cjc151_6215"
    INDEX 01 02:56:49
  TRACK 78 AUDIO
    TITLE "0:"
    INDEX 01 02:57:69
  TRACK 79 AUDIO
    TITLE "3:cjc151_6216"
    INDEX 01 02:59:44
  TRACK 80 AUDIO
    TITLE "0:"
    INDEX 01 03:04:24
  TRACK 81 AUDIO
    TITLE "2:cjc151_6217"
    INDEX 01 03:06:03
  TRACK 82 AUDIO
    TITLE "0:"
    INDEX 01 03:07:12
  TRACK 83 AUDIO
    TITLE "3:cjc151_6218"
    INDEX 01 03:08:64
  TRACK 84 AUDIO
    TITLE "0:"
    INDEX 01 03:13:42
  TRACK 85 AUDIO
    TITLE "2:cjc151_6219"
    INDEX 01 03:15:31
  TRACK 86 AUDIO
    TITLE "0:"
    INDEX 01 03:16:56
  TRACK 87 AUDIO
    TITLE "3:cjc151_6220"
    INDEX 01 03:18:35
  TRACK 88 AUDIO
    TITLE "0:"
    INDEX 01 03:21:59
